<svg width="22" height="22" viewBox="0 0 22 22" fill="none" xmlns="http://www.w3.org/2000/svg">
<path d="M8.78696 6.47143C8.78696 6.16528 8.84395 5.87868 8.95793 5.61163C9.07192 5.34457 9.22988 5.10927 9.4318 4.90571C9.63371 4.70218 9.8682 4.5426 10.1353 4.42698C10.4023 4.31136 10.6889 4.25355 10.9951 4.25355C11.3045 4.25355 11.5927 4.31136 11.8597 4.42698C12.1268 4.5426 12.3613 4.70218 12.5632 4.90571C12.7651 5.10927 12.9231 5.34457 13.0371 5.61163C13.1511 5.87868 13.208 6.16528 13.208 6.47143C13.208 6.82316 13.1331 7.14884 12.9833 7.44846C12.8335 7.74809 12.6292 8.00131 12.3702 8.20812C12.1113 8.41492 11.8158 8.55415 11.4836 8.6258V13.1006C11.4836 13.498 11.4689 13.8489 11.4396 14.1534C11.4103 14.4579 11.3712 14.7128 11.3224 14.9179C11.2735 15.1231 11.2206 15.2786 11.1636 15.3845C11.1066 15.4903 11.0504 15.5432 10.9951 15.5432C10.9429 15.5432 10.8876 15.4903 10.829 15.3845C10.7703 15.2786 10.7166 15.1223 10.6677 14.9155C10.6189 14.7087 10.579 14.453 10.5481 14.1485C10.5171 13.844 10.5017 13.4947 10.5017 13.1006V8.6258C10.1727 8.55415 9.87879 8.41492 9.61986 8.20812C9.36095 8.00131 9.1574 7.74809 9.00922 7.44846C8.86105 7.14884 8.78696 6.82316 8.78696 6.47143ZM10.3502 6.57401C10.5554 6.57401 10.7321 6.4991 10.8803 6.3493C11.0284 6.19949 11.1025 6.02199 11.1025 5.81682C11.1025 5.61163 11.0284 5.43413 10.8803 5.28433C10.7321 5.13452 10.5554 5.05961 10.3502 5.05961C10.2167 5.05961 10.0921 5.09381 9.97649 5.1622C9.86088 5.23059 9.76806 5.32258 9.69804 5.4382C9.62802 5.55382 9.59301 5.68002 9.59301 5.81682C9.59301 5.9536 9.62802 6.07898 9.69804 6.19298C9.76806 6.30696 9.86088 6.39896 9.97649 6.46898C10.0921 6.539 10.2167 6.57401 10.3502 6.57401ZM10.9999 17.7465C10.0815 17.7465 9.26 17.6764 8.53536 17.5364C7.81072 17.3963 7.19355 17.2042 6.68386 16.9599C6.17418 16.7157 5.78581 16.4364 5.51875 16.1221C5.25169 15.8079 5.11816 15.4781 5.11816 15.1329C5.11816 14.8202 5.21017 14.5328 5.39418 14.2706C5.57819 14.0085 5.82489 13.774 6.13429 13.5672C6.44369 13.3604 6.78728 13.1837 7.16505 13.0371C7.54284 12.8906 7.92959 12.7782 8.3253 12.7C8.72099 12.6219 9.09634 12.5812 9.45133 12.5779V13.3693C9.18753 13.3726 8.90745 13.4011 8.61108 13.4548C8.3147 13.5086 8.02322 13.5835 7.73663 13.6795C7.45003 13.7756 7.19031 13.8912 6.95745 14.0264C6.72458 14.1616 6.53894 14.3122 6.40052 14.4783C6.26211 14.6444 6.19291 14.8235 6.19291 15.0156C6.19291 15.2957 6.3126 15.5506 6.55198 15.7802C6.79135 16.0098 7.12762 16.2076 7.56077 16.3737C7.99392 16.5398 8.50279 16.6685 9.08738 16.7597C9.67198 16.8508 10.3095 16.8964 10.9999 16.8964C11.6871 16.8964 12.323 16.8508 12.9076 16.7597C13.4922 16.6685 14.0011 16.539 14.4342 16.3713C14.8674 16.2036 15.2045 16.0049 15.4455 15.7753C15.6865 15.5457 15.807 15.2925 15.807 15.0156C15.807 14.8235 15.737 14.6444 15.5969 14.4783C15.4569 14.3122 15.2704 14.1616 15.0376 14.0264C14.8047 13.8912 14.5458 13.7756 14.2608 13.6795C13.9758 13.5835 13.6852 13.5086 13.3888 13.4548C13.0924 13.4011 12.8124 13.3726 12.5485 13.3693V12.5779C12.9003 12.5812 13.274 12.6219 13.6697 12.7C14.0654 12.7782 14.453 12.8906 14.8324 13.0371C15.2118 13.1837 15.5562 13.3604 15.8656 13.5672C16.175 13.774 16.4217 14.0085 16.6057 14.2706C16.7897 14.5328 16.8817 14.8202 16.8817 15.1329C16.8817 15.4781 16.7474 15.8079 16.4787 16.1221C16.21 16.4364 15.8216 16.7157 15.3136 16.9599C14.8055 17.2042 14.1883 17.3963 13.4621 17.5364C12.7358 17.6764 11.9151 17.7465 10.9999 17.7465Z" fill="#0E0E0F" stroke="#0E0E0F" stroke-width="0.227384"/>
</svg>
