<svg width="22" height="22" viewBox="0 0 22 22" fill="none" xmlns="http://www.w3.org/2000/svg">
<path d="M5.99102 18.1932C4.8043 18.1932 4.21094 17.7963 4.21094 17.0024C4.21094 16.5934 4.31118 16.16 4.51167 15.7023C4.71215 15.2446 5.00478 14.7981 5.38954 14.3627C5.77431 13.9273 6.24211 13.5334 6.79295 13.1811C7.34378 12.8287 7.97258 12.5462 8.67934 12.3335C9.3861 12.1209 10.1587 12.0146 10.9971 12.0146C11.8395 12.0146 12.6141 12.1209 13.3209 12.3335C14.0277 12.5462 14.6565 12.8287 15.2073 13.1811C15.7581 13.5334 16.2259 13.9273 16.6107 14.3627C16.9955 14.7981 17.2881 15.2446 17.4886 15.7023C17.6891 16.16 17.7893 16.5934 17.7893 17.0024C17.7893 17.7963 17.1959 18.1932 16.0092 18.1932H5.99102ZM5.69331 17.1786H16.3069C16.4568 17.1786 16.5621 17.1563 16.6228 17.1118C16.6836 17.0672 16.714 16.9903 16.714 16.8809C16.714 16.5974 16.633 16.2845 16.471 15.9423C16.309 15.6 16.07 15.2588 15.7541 14.9186C15.4382 14.5784 15.0493 14.2655 14.5876 13.98C14.1259 13.6944 13.5953 13.4656 12.9959 13.2935C12.3964 13.1213 11.7302 13.0353 10.9971 13.0353C10.268 13.0353 9.6038 13.1213 9.00437 13.2935C8.40493 13.4656 7.87435 13.6944 7.41263 13.98C6.95091 14.2655 6.56209 14.5784 6.24617 14.9186C5.93025 15.2588 5.69129 15.6 5.52929 15.9423C5.36728 16.2845 5.28627 16.5974 5.28627 16.8809C5.28627 16.9903 5.31665 17.0672 5.37741 17.1118C5.43815 17.1563 5.54345 17.1786 5.69331 17.1786ZM11.0092 10.9818C10.5475 10.9818 10.1162 10.8886 9.71519 10.7023C9.31423 10.516 8.96085 10.2568 8.65505 9.92468C8.34925 9.59257 8.11029 9.2078 7.93815 8.77038C7.76601 8.33294 7.67994 7.86311 7.67994 7.36089C7.67994 6.87082 7.76601 6.41111 7.93815 5.98178C8.11029 5.55246 8.34925 5.17478 8.65505 4.84874C8.96085 4.52269 9.31524 4.26753 9.71821 4.08325C10.1212 3.89896 10.5516 3.80681 11.0092 3.80681C11.4669 3.80681 11.8972 3.89794 12.3002 4.0802C12.7032 4.26246 13.0566 4.51561 13.3604 4.83963C13.6642 5.16364 13.9021 5.53929 14.0742 5.96659C14.2464 6.39389 14.3324 6.8546 14.3324 7.34873C14.3324 7.85097 14.2464 8.3218 14.0742 8.76124C13.9021 9.2007 13.6642 9.58649 13.3604 9.9186C13.0566 10.2507 12.7032 10.5109 12.3002 10.6993C11.8972 10.8876 11.4669 10.9818 11.0092 10.9818ZM11.0092 9.96721C11.4183 9.96721 11.794 9.85076 12.1362 9.61787C12.4785 9.38499 12.7508 9.07008 12.9534 8.67316C13.1559 8.27623 13.2571 7.83475 13.2571 7.34873C13.2571 6.87082 13.1559 6.44149 12.9534 6.06076C12.7508 5.68004 12.4795 5.3783 12.1393 5.15553C11.799 4.93277 11.4224 4.82139 11.0092 4.82139C10.5961 4.82139 10.2195 4.9348 9.87923 5.16161C9.53901 5.38843 9.26663 5.69321 9.06208 6.07594C8.85756 6.45869 8.7553 6.88701 8.7553 7.36089C8.7553 7.84691 8.85756 8.28737 9.06208 8.68226C9.26663 9.07717 9.54002 9.39006 9.88226 9.62092C10.2245 9.85178 10.6002 9.96721 11.0092 9.96721Z" fill="#0E0E0F" stroke="#0E0E0F" stroke-width="0.282779"/>
</svg>
