<svg width="22" height="22" viewBox="0 0 22 22" fill="none" xmlns="http://www.w3.org/2000/svg">
<path d="M18.9797 5.59922C18.921 5.52901 18.8476 5.47254 18.7648 5.4338C18.6819 5.39506 18.5915 5.37498 18.5 5.375H5.89687L5.42187 2.76328C5.39571 2.61927 5.31984 2.48901 5.20748 2.39521C5.09512 2.30141 4.9534 2.25002 4.80703 2.25H2.875C2.70924 2.25 2.55027 2.31585 2.43306 2.43306C2.31585 2.55027 2.25 2.70924 2.25 2.875C2.25 3.04076 2.31585 3.19973 2.43306 3.31694C2.55027 3.43415 2.70924 3.5 2.875 3.5H4.28125L6.27812 14.4602C6.33695 14.7852 6.48059 15.0889 6.69453 15.3406C6.39926 15.6164 6.18613 15.9686 6.0788 16.3581C5.97146 16.7477 5.9741 17.1593 6.08643 17.5474C6.19876 17.9355 6.41638 18.2849 6.71518 18.5569C7.01397 18.8289 7.38225 19.0128 7.77919 19.0883C8.17612 19.1637 8.5862 19.1278 8.96394 18.9844C9.34169 18.841 9.67235 18.5958 9.91925 18.276C10.1662 17.9562 10.3197 17.5742 10.3627 17.1725C10.4058 16.7707 10.3368 16.3649 10.1633 16H13.7117C13.5719 16.2927 13.4995 16.6131 13.5 16.9375C13.5 17.3701 13.6283 17.7931 13.8687 18.1528C14.109 18.5125 14.4507 18.7929 14.8504 18.9585C15.2501 19.1241 15.6899 19.1674 16.1143 19.083C16.5386 18.9986 16.9284 18.7902 17.2343 18.4843C17.5402 18.1784 17.7486 17.7886 17.833 17.3643C17.9174 16.9399 17.8741 16.5001 17.7085 16.1004C17.5429 15.7007 17.2625 15.359 16.9028 15.1187C16.5431 14.8783 16.1201 14.75 15.6875 14.75H8.12266C7.97629 14.75 7.83457 14.6986 7.72221 14.6048C7.60985 14.511 7.53398 14.3807 7.50781 14.2367L7.26016 12.875H16.3227C16.7618 12.8749 17.1869 12.7208 17.524 12.4394C17.8611 12.158 18.0887 11.7672 18.1672 11.3352L19.1172 6.11172C19.1333 6.02144 19.1293 5.92872 19.1055 5.84015C19.0818 5.75158 19.0388 5.66933 18.9797 5.59922ZM9.125 16.9375C9.125 17.1229 9.07002 17.3042 8.967 17.4583C8.86399 17.6125 8.71757 17.7327 8.54627 17.8036C8.37496 17.8746 8.18646 17.8932 8.0046 17.857C7.82274 17.8208 7.6557 17.7315 7.52459 17.6004C7.39348 17.4693 7.30419 17.3023 7.26801 17.1204C7.23184 16.9385 7.25041 16.75 7.32136 16.5787C7.39232 16.4074 7.51248 16.261 7.66665 16.158C7.82082 16.055 8.00208 16 8.1875 16C8.43614 16 8.6746 16.0988 8.85041 16.2746C9.02623 16.4504 9.125 16.6889 9.125 16.9375ZM16.625 16.9375C16.625 17.1229 16.57 17.3042 16.467 17.4583C16.364 17.6125 16.2176 17.7327 16.0463 17.8036C15.875 17.8746 15.6865 17.8932 15.5046 17.857C15.3227 17.8208 15.1557 17.7315 15.0246 17.6004C14.8935 17.4693 14.8042 17.3023 14.768 17.1204C14.7318 16.9385 14.7504 16.75 14.8214 16.5787C14.8923 16.4074 15.0125 16.261 15.1667 16.158C15.3208 16.055 15.5021 16 15.6875 16C15.9361 16 16.1746 16.0988 16.3504 16.2746C16.5262 16.4504 16.625 16.6889 16.625 16.9375ZM16.9375 11.1117C16.9113 11.2561 16.835 11.3867 16.7222 11.4805C16.6094 11.5744 16.4671 11.6255 16.3203 11.625H7.03281L6.12422 6.625H17.7508L16.9375 11.1117Z" fill="white"/>
</svg>
